<?xml version="1.0" encoding="utf-8"?>
<!-- Generator: Adobe Illustrator 24.1.2, SVG Export Plug-In . SVG Version: 6.00 Build 0)  -->
<svg version="1.1" xmlns="http://www.w3.org/2000/svg" xmlns:xlink="http://www.w3.org/1999/xlink" x="0px" y="0px"
	 viewBox="0 0 503.8 114" style="enable-background:new 0 0 503.8 114;filter: invert(100%);" xml:space="preserve" >
<style type="text/css">
	.st0{display:none;}
	.st1{display:inline;}

</style>
<g id="Calque_1" class="st0">
	<g class="st1">
		<path  d="M310,61.1l-0.9-0.6c-2-1.3-4.2-2.3-6.7-3c-2.2-0.6-4.6-0.9-7.1-0.9c-1.2,0-2.4,0.1-3.5,0.2c-1.2,0.1-2.3,0.3-3.5,0.6
			c-1.4,0.3-2.4,0.6-3.4,0.9c-0.2,0.1-0.4,0.1-0.7,0.2c-0.3,0.1-0.7,0.2-1,0.3l-0.5,0.2c-0.4,0.1-0.7,0.2-1.1,0.4
			c-2.3,0.9-4.4,2-6.4,3.2c-0.6,0.4-1.2,0.8-1.9,1.3c0.1-0.7,0.2-1.3,0.3-1.9c0.5-3.7,0.5-7.4,0-11.1c-0.2-1.8-0.5-3.6-1-5.4
			c-0.4-1.8-0.9-3.2-1.6-5.2c-0.6-1.7-1.3-3.4-2.1-5c-0.9-1.9-1.8-3.4-2.6-4.7c-0.9-1.5-2-3-3.1-4.4l-1.7-2.1l-1.8-2
			c-1.2-1.3-2.5-2.5-3.9-3.7l-2.1-1.7l-2.2-1.6l-2.2-1.5l-2.3-1.4l-2.4-1.3l-3.6-1.7c-0.2-0.1-0.4,0-0.5,0.1l-1.4,1.6
			c-0.7,0.9-1.5,1.7-2.2,2.7c0.4-0.9,0.8-1.7,1.1-2.4c0.8-1.6,1.2-2.5,1.2-2.5c0-0.1,0-0.2-0.1-0.2l-7.8-2.8c-0.1,0-0.2,0-0.2,0.1
			c0,0-0.4,1.2-0.7,2.3c-0.3,1-0.7,2.1-1.1,3.5c-0.4,1.3-1,2.8-1.3,4.6c-0.4,1.7-0.8,3.5-1.2,5.5c-0.4,1.9-0.6,4.1-0.9,6.2
			c-0.4,2.1-0.4,6.6-0.4,6.6c0,0.1,0,0.2,0,0.3l0.4,6.6c0,0.1,0,0.2,0,0.3l0.1,1.4c0,0.1,0,0.2,0.1,0.3l0.3,1.4c0,0.1,0,0.2,0.1,0.3
			l0.7,3.1c0,0.1,0.1,0.2,0.1,0.3c0,0,0.7,2,1,3.1c0.4,1.1,1.1,2.9,1.1,2.9c0,0.1,0.1,0.2,0.1,0.3l1.2,2.6c0,0.1,0.1,0.2,0.2,0.3
			c0,0,1,1.6,1.5,2.5c0.5,0.9,1.1,1.6,1.6,2.3c0.6,0.7,1.1,1.5,1.7,2.1c1.2,1.3,3.2,3.2,3.2,3.2c0.1,0.1,0.2,0.2,0.2,0.2l2.9,2.7
			c0.1,0.1,0.2,0.2,0.3,0.4c-0.2,0-0.4,0-0.6,0.1c-0.9,0.1-1.9,0.3-2.9,0.5c-0.2,0-0.3,0.2-0.3,0.5c0,0.2,0.2,0.3,0.4,0.3
			c0.4,0,0.8-0.1,1.2-0.1c1,0,2.1,0,3.2,0c0.5,0.5,1,1.1,1.6,1.7c0.7,0.7,1.5,1.5,2.5,2.1l0.1,0.1c0.5,0.3,0.9,0.6,1.6,0.8
			c0.4,0.2,1.4,0.1,1.8-0.7c0.3-0.5,0.3-0.9,0.3-1.3c0-0.6-0.2-1.4-0.7-2c-0.4-0.5-0.9-0.9-1.6-1.2c-1.2-0.5-2.4-0.7-3.3-0.8
			c-0.1,0-0.1,0-0.2,0c0,0,0,0-0.1,0c-0.8-1-1.6-2-2.2-2.8c-1.2-1.7-2.2-3-2.7-3.8c-1.2-2-2.2-4.2-3-6.5c-0.5-1.3-0.8-2.6-1.2-3.8
			c-0.1-0.3-0.1-0.5-0.2-0.8c-0.1-0.4-0.2-0.8-0.3-1.2l-0.1-0.4c0-0.2-0.1-0.4-0.1-0.5l-0.2-1c-0.2-1-0.3-1.9-0.4-2.7
			c0-0.4-0.1-0.8-0.1-1.1l-0.1-0.9c-0.1-1-0.2-2-0.1-3c-0.1-0.9,0-1.7,0-2.6c0-0.4,0-0.8,0-1.2l0.1-0.8c0.1-1,0.1-2,0.3-3
			c0.1-1,0.3-2.1,0.5-3.1l0.1-0.6c0.1-0.4,0.2-0.8,0.3-1.3c0.2-0.8,0.4-1.7,0.6-2.5c0.3-1,0.6-2,0.9-3l0.2-0.7
			c0.4-1.1,0.9-2.3,1.5-3.6l0.4-0.8c0.4-0.9,0.9-1.8,1.4-2.7c0.4-0.7,0.8-1.4,1.2-2.1l3,1.1c1.5,0.6,3,1.4,4.5,2.2
			c1.6,1,3,1.9,4.2,2.8c1.3,1.1,2.6,2.2,3.7,3.4c1.3,1.3,2.4,2.7,3.2,3.8c1,1.4,1.9,2.8,2.7,4.2c0.7,1.3,1.5,2.9,2.1,4.5
			c0.5,1.3,1.1,3,1.5,4.8c0.4,1.7,0.8,3.5,0.9,4.9c0.2,1.6,0.3,3.3,0.3,4.9c0,1.6-0.1,3.2-0.3,4.9c-0.2,1.6-0.4,3.2-0.8,4.8
			c-0.7,3.1-1.7,6.2-3,9.2c-0.6,1.4-1.4,2.8-2.2,4.3c-0.8,1.3-1.7,2.6-2.7,4l-1.7,2.2c0,0-0.1,0.1-0.1,0.1c-0.8,0.9-1.6,1.7-2.3,2.4
			c-1.4,1.3-3.1,2.5-4.9,3.6c-1.7,1-3.6,1.9-5.6,2.5c-1.1,0.3-2.1,0.6-3,0.8c-0.9,0.2-1.9,0.4-3,0.6l-1.6,0.2l-1.5,0.1
			c-1.1,0-2.2,0-3.1-0.1c-2.1-0.1-4.2-0.5-6.1-1c-2-0.5-4-1.3-5.9-2.2c-1.2-0.6-2.5-1.4-3.9-2.4c2-3.2,4.6-5.9,7.5-7.9
			c0.6-0.4,1.3-0.8,1.9-1.1c2.1-1.3,4.4-2.5,6.4-3.1c1.8-0.6,3-0.8,3.3-0.9c0.2,0,0.4-0.2,0.3-0.5c0-0.2-0.2-0.4-0.4-0.3
			c-2.2,0.3-4.1,0.7-6,1.2c-2.2,0.6-4.3,1.4-6.7,2.6c-2,1-4.1,2.3-6.1,3.9c-2,1.6-3.7,3.4-5.2,5.3l-0.8,1.1c-0.1,0.1-0.1,0.4,0,0.5
			l1.1,1.3c1.6,1.9,3.5,3.6,5.6,5.2c2,1.4,4.3,2.7,6.8,3.6c2.5,0.9,5,1.5,7.5,1.9c1.2,0.1,2.5,0.2,3.9,0.3l2,0l1.8-0.1
			c2.8-0.3,5.3-0.8,7.6-1.5c2.5-0.8,4.9-1.9,7.1-3.2c0.7-0.4,1.3-0.8,2.1-1.4c0,1.7,0.2,3.3,0.6,4.9c0.1,0.4,0.2,0.8,0.3,1.2
			l0.4,1.2c0.2,0.6,0.7,1.7,1.1,2.4c0.9,1.6,2,3,3.3,4.1c1.3,1.2,2.9,2.1,4.5,2.7c1.6,0.6,3.2,0.8,4.9,0.8c0,0,0.1,0,0.1,0l1.5,0
			c0.2,0,0.3-0.1,0.4-0.3l0.4-1c1.2-3,1.9-6.2,2.2-9.5c0.2-3.4-0.1-6.6-1-9.4c-0.3-0.8-0.5-1.4-0.7-2c0-0.2-0.1-0.3-0.2-0.5
			c4,0.4,6.3,0,9.8-0.6c1-0.2,2-0.4,2.9-0.7c1.1-0.3,1.8-0.6,2.8-0.9c1.7-0.6,3.4-1.5,5.5-2.7c1.6-1,3.1-2.2,4.8-3.7
			c1.3-1.2,2.6-2.7,4-4.5c2.2-3,4.1-6.5,5.5-10.5l0.5-1.4C310.3,61.4,310.2,61.2,310,61.1z M271.5,84.1c-0.4-0.2-0.8-0.6-0.8-1.2
			c0,0,0-0.1,0-0.1C271,83.2,271.3,83.6,271.5,84.1z M273.9,98c-0.5,2-1.5,4-2.8,5.9c-0.7-0.3-1.3-0.6-1.8-0.9
			c-1-0.6-1.7-1.3-2.3-2.1c-0.6-0.8-1.2-1.7-1.6-2.7l-0.1-0.1c-0.1-0.2-0.2-0.4-0.2-0.6c-0.1-0.2-0.2-0.4-0.3-0.8l-0.1-0.5
			c0-0.1,0-0.1,0-0.2l-0.1-0.2c-0.1-0.2-0.1-0.5-0.1-0.7c-0.4-2.1-0.3-4.4,0.1-6.8c0.3-1.6,0.8-3.2,1.4-4.7c0,0,0,0,0-0.1l1-2
			c0.9-2,2-3.8,3-5.4c1.1-1.7,2.4-3.3,3.8-4.9c1.4-1.6,2.9-3.1,4.4-4.5c1.5-1.4,3.3-2.7,5-3.8c0.3-0.2,0.6-0.4,0.9-0.5l0.5-0.3
			c0.3-0.2,0.6-0.3,1-0.5l0.4-0.2c0.9-0.4,1.9-0.9,3-1.2c2.1-0.7,4.2-1,6.2-1c1.1,0,2.1,0.1,3.1,0.2c1.2,0.2,2.1,0.5,3,0.9
			c1,0.4,1.9,0.8,2.7,1.4c0.3,0.2,0.6,0.4,0.9,0.7c-0.7,1.1-1.4,2.1-2.2,3.1c-1,1.2-2.1,2.5-3.5,4c-1.1,1.2-2.3,2.3-3.7,3.7
			c-1.4,1.3-2.7,2.4-3.9,3.4c-1.4,1.1-2.8,2.2-4.2,3.1c-0.5,0.3-1.1,0.7-1.6,1l-0.6,0.4c-0.7,0.4-1.5,0.9-2.3,1.2
			c-2.2,1.1-5.5,2.4-9,2.4c-0.1,0-0.3,0-0.4,0c0-0.1-0.1-0.2-0.1-0.3c-0.1-0.3-0.3-0.7-0.4-1l-0.1-0.1c-0.4-0.7-0.8-1.5-1.5-2.2
			c0,0-0.1-0.1-0.1-0.1c-0.2-0.2-0.5-0.4-1-0.5c-0.4-0.1-0.8,0.1-1.1,0.3c-0.2,0.2-0.3,0.4-0.4,0.6c-0.2,0.6-0.2,1.1-0.2,1.7
			c0.1,0.6,0.3,1.2,0.6,1.7c0.3,0.4,0.8,0.8,1.4,1.1c0.4,0.2,0.9,0.3,1.5,0.4c0.7,1,1.2,2,1.5,3.1l0.1,0.2c0.4,1.4,0.6,2.8,0.6,4.2
			C274.5,95.2,274.3,96.7,273.9,98z M249.6,74.8c-0.2-0.1-0.4-0.3-0.7-0.5c-0.6-0.5-1.2-1.1-1.8-1.7c0.5,0.1,0.9,0.3,1.3,0.5
			C249.2,73.6,249.6,74.1,249.6,74.8z"/>
	</g>
</g>
<g id="Calque_1_-_copie">
	<g>
		<path d="M211.1,94c-1.9,1.5-3.8,2.9-6,4.1c-6.6,3.8-13.6,5.7-21,5.7c-6.3,0-11.9-0.9-16.6-2.7c-0.4,0.1-0.7,0.2-1.1,0.3
			c-1.1,0.3-2.3,0.5-3.5,0.8c-2.5,0.6-5.2,1-8.1,1.4c-1.5,0.1-3,0.2-4.6,0.3c-1.6,0.1-3.2,0-4.9,0c-1.7,0-3.4-0.3-5.1-0.5
			c-1.7-0.3-3.5-0.7-5.3-1.1c-3.5-1.1-7.1-2.3-10.5-4.3c-1.7-0.9-3.3-2.1-4.9-3.2c-1.5-1.2-3.1-2.4-4.4-3.8
			c-2.8-2.7-5.2-5.7-7.2-8.7c-2.1-3-3.7-6.1-5.1-9.1c-0.3-0.7-0.6-1.4-0.9-2.1c-1.5,1.4-2.5,2.3-2.5,2.3l-7.9,29.5H67.3l4.4-13.7
			c-3.2,3.5-6.9,6.4-11.2,8.9c-6.6,3.8-13.6,5.7-21,5.7c-11.3,0-20.1-2.8-26.4-8.5c-6.3-5.6-9.4-13.4-9.4-23.2c0-5.9,1-11.6,3-16.9
			c2-5.3,5.1-10.2,9.3-14.5c3.9-4.1,8.8-7.5,14.9-10.1c6.1-2.6,12.9-3.9,20.4-3.9c8.7,0,15.3,1.6,19.9,4.8c4.6,3.2,6.9,7.6,6.9,13.2
			c0,1.5-0.2,3.2-0.7,5.1c-0.5,1.9-1.2,3.4-2.2,4.7c-1.2,1.6-2.6,2.8-4,3.6c-1.4,0.8-3.6,1.3-6.5,1.3c-3.8,0-6.8-0.9-8.9-2.8
			c-2.1-1.9-3.2-3.9-3.2-5.9c0-2.4,0.5-4.9,1.5-7.3c1-2.4,2.3-4.9,3.9-7.6c-0.4-0.5-1.3-1.2-2.7-2c-1.4-0.8-3.1-1.2-5.3-1.2
			c-5.7,0-10.5,3.5-14.3,10.4C31.9,49.9,30,58.4,30,68.7c0,7.8,1.4,13.7,4.3,17.7c2.9,4,6.9,6,12.2,6c14.4,0,22.6-6.6,27.1-11.7
			l15.3-55.6c0.2-0.8,0.3-1.6,0.4-2.4c0.1-0.7,0.1-1.3,0.1-1.8c0-1.8-0.3-3.2-0.9-4.2c-0.6-1-1.5-1.9-2.7-2.5
			c-1.2-0.6-2.5-1.1-4-1.3c-1.5-0.2-3.3-0.5-5.3-0.7l1.3-5.4l38.7-1.9l0.8,1.2l-16.1,59.1h0.6c5.9-6.6,10.6-11.7,14-15.2
			c3.4-3.5,7.1-7.2,11.1-11.1c4.8-4.7,8.6-7.9,11.5-9.6c2.9-1.7,6-2.6,9.5-2.6c3.5,0,6.3,1,8.4,2.9c2.1,2,3.1,4.8,3.1,8.6
			c0,3.5-1.3,6.6-3.8,9.3c-2.5,2.7-5.6,4-9.3,4c-3.1,0-5.9-0.7-8.6-2.1c-2.6-1.4-5-2.9-7-4.4c-1,0.6-1.9,1.3-2.9,1.9
			c-0.3,0.2-2.8,2.5-6.3,5.7c-0.1,2-0.1,4.5,0,7.2c0.1,2.1,0.4,4.3,0.8,6.7c0.5,2.3,1,4.8,1.8,7.1c0.8,2.4,1.8,4.8,3.2,7
			c0.6,1.2,1.5,2.2,2.2,3.3c0.9,1,1.7,2.1,2.7,3c1.9,2,4.2,3.6,6.6,5.1c1.2,0.6,2.5,1.3,3.8,1.9c1.3,0.5,2.6,1.1,4,1.5
			c1.4,0.4,2.7,0.8,4.1,1.1c1.4,0.3,2.7,0.5,4,0.8c2.3,0.2,4.4,0.5,6.5,0.6c-1.3-0.8-2.5-1.7-3.6-2.7c-6.3-5.6-9.4-13.4-9.4-23.2
			c0-5.9,1-11.6,3-16.9c0.1-0.2,0.2-0.4,0.2-0.6c2.8-0.7,5.3-2.2,7.4-4.4c3.1-3.3,4.6-7,4.6-11.3c0-0.4,0-0.7,0-1
			c3.4-2.9,7.4-5.3,12-7.3c6.1-2.6,12.9-3.9,20.4-3.9c8.7,0,15.3,1.6,19.9,4.8c4.6,3.2,6.9,7.6,6.9,13.2c0,1.5-0.2,3.2-0.7,5.1
			c-0.5,1.9-1.2,3.4-2.2,4.7c-1.2,1.6-2.6,2.8-4,3.6c-1.4,0.8-3.6,1.3-6.5,1.3c-3.8,0-6.8-0.9-8.9-2.8c-2.1-1.9-3.2-3.9-3.2-5.9
			c0-2.4,0.5-4.9,1.5-7.3c1-2.4,2.3-4.9,3.9-7.6c-0.4-0.5-1.3-1.2-2.7-2c-1.4-0.8-3.1-1.2-5.3-1.2c-5.7,0-10.5,3.5-14.3,10.4
			c-3.8,6.9-5.7,15.5-5.7,25.8c0,7.8,1.4,13.7,4.3,17.7c2.9,4,6.9,6,12.2,6c6.5,0,11.8-1.4,16-3.3C208.2,91,209.6,92.6,211.1,94z
			 M469.9,81.5c-0.3,1.9-0.5,3.1-0.5,3.7c0,2.7,0.7,4.5,2.2,5.6c1.5,1,3.7,1.6,6.8,1.6c1.5,0,3.5-0.3,6-0.8c2.6-0.6,4.4-1,5.4-1.4
			l-1.6,6.3c-4.1,1.8-8.3,3.3-12.4,4.3c-4.2,1-7.9,1.5-11.4,1.5c-5.6,0-10.1-1.4-13.5-4.1c-2.9-2.4-4.5-5.3-5-8.7
			c-6.1,5.9-20.1,13.3-37.7,13.3c-5.6,0-10.6-0.8-14.8-2.3c-3.6-1.3-6.7-3-9.2-5.2c-1-0.9-1.8-1.7-2.6-2.6
			c-7.4,7.4-15.7,13.5-22.8,13.5c-3.6,0-21.1-9.7-22.8-20.4c-0.4-2.2,2.5-11.9,7.8-26.5L345,56l-2.5,2.4
			c-11.2,10.8-25.4,25.3-35,42.2c-0.6,1.1-1.7,1.7-3.4,1.7c-6.9,0-17.7-9-17.9-10.8c0-0.2,0-0.4,0-0.6c0,0,0,0,0,0
			c0.4-0.1,0.8-0.2,1.3-0.3c0.9-0.2,1.7-0.6,2.6-1c0.5-0.2,0.9-0.5,1.3-0.7c0.4-0.3,0.9-0.5,1.3-0.8c0.4-0.3,0.8-0.6,1.2-0.9
			c0.4-0.3,0.8-0.7,1.1-1c0.8-0.6,1.4-1.4,2.1-2.1c0.6-0.7,1.3-1.5,1.8-2.2c0.6-0.7,1.1-1.5,1.6-2.2c1-1.5,1.9-2.9,2.6-4.1
			c0.5-0.8,0.8-1.5,1.2-2.1c0,0-0.1,0.1-0.1,0.1c-1.4,1.9-2.7,3.3-4,4.5c-1.6,1.5-3.2,2.7-4.8,3.7c-2,1.3-3.7,2.1-5.5,2.7
			c-1,0.4-1.8,0.6-2.8,0.9c-0.9,0.3-1.9,0.5-2.9,0.7c-3.5,0.6-5.8,1-9.8,0.6c0.1,0.2,0.1,0.3,0.2,0.5c0.3,0.6,0.5,1.2,0.7,2
			c0.9,2.8,1.2,5.9,1,9.4c-0.2,3.3-0.9,6.5-2.2,9.5l-0.4,1c-0.1,0.2-0.2,0.2-0.4,0.3l-1.5,0c0,0-0.1,0-0.1,0c-1.6,0-3.2-0.3-4.9-0.8
			c-1.6-0.6-3.2-1.5-4.5-2.7c-1.3-1.2-2.4-2.5-3.3-4.1c-0.4-0.6-0.9-1.8-1.1-2.4l-0.4-1.2c-0.1-0.4-0.3-0.8-0.3-1.2
			c-0.4-1.5-0.5-3.1-0.6-4.8c-0.8,0.6-1.5,1-2.1,1.4c-2.2,1.3-4.6,2.4-7.1,3.2c-2.3,0.8-4.7,1.3-7.6,1.5l-1.8,0.1l-2,0
			c-1.4,0-2.7-0.1-3.9-0.3c-2.5-0.3-5-1-7.5-1.9c-2.5-1-4.7-2.2-6.8-3.6c-2.1-1.5-4-3.2-5.6-5.2l-1.1-1.3c-0.1-0.1-0.1-0.4,0-0.5
			l0.8-1.1c1.5-2,3.2-3.8,5.2-5.3c2-1.6,4.1-2.9,6.1-3.9c2.3-1.2,4.5-2,6.7-2.6c1.8-0.5,3.8-0.9,6-1.2c0.2,0,0.4,0.1,0.4,0.3
			c0,0.2-0.1,0.4-0.3,0.5c-0.2,0-1.5,0.3-3.3,0.9c-2,0.6-4.3,1.8-6.4,3.1c-0.6,0.3-1.2,0.7-1.9,1.1c-3,2-5.6,4.7-7.5,7.9
			c1.4,1,2.6,1.8,3.9,2.4c1.9,0.9,3.9,1.7,5.9,2.2c1.9,0.5,4,0.9,6.1,1c0.9,0.1,2,0.1,3.1,0.1l1.5-0.1l1.6-0.2
			c1.2-0.2,2.1-0.3,3-0.6c0.9-0.2,1.9-0.5,3-0.8c1.9-0.6,3.8-1.5,5.6-2.5c1.8-1.1,3.5-2.3,4.9-3.6c0.8-0.7,1.5-1.5,2.3-2.4
			c0-0.1,0-0.1,0.1-0.1l1.7-2.2c1-1.4,1.9-2.7,2.7-4c0.9-1.5,1.6-2.9,2.2-4.3c1.3-3,2.4-6.1,3-9.2c0.4-1.6,0.6-3.2,0.8-4.8
			c0.2-1.7,0.3-3.3,0.3-4.9c0-1.6-0.1-3.3-0.3-4.9c-0.2-1.4-0.5-3.2-0.9-4.9c-0.4-1.8-1-3.5-1.5-4.8c-0.6-1.7-1.4-3.2-2.1-4.5
			c-0.8-1.4-1.7-2.8-2.7-4.2c-0.9-1.2-2-2.6-3.2-3.8c-1.2-1.2-2.4-2.3-3.7-3.4c-1.2-0.9-2.5-1.8-4.2-2.8c-1.5-0.9-3-1.6-4.5-2.2
			l-3-1.1c-0.5,0.7-0.9,1.4-1.2,2.1c-0.5,0.9-1,1.8-1.4,2.7l-0.4,0.8c-0.6,1.3-1.1,2.5-1.5,3.6l-0.2,0.7c-0.3,1-0.7,2-0.9,3
			c-0.2,0.8-0.4,1.7-0.6,2.5c-0.1,0.4-0.2,0.8-0.3,1.3l-0.1,0.6c-0.2,1-0.4,2.1-0.5,3.1c-0.1,1-0.2,2-0.3,3l-0.1,0.8
			c0,0.4,0,0.8,0,1.2c0,0.9,0,1.7,0,2.6c0,1,0.1,2,0.1,3l0.1,0.9c0.1,0.4,0.1,0.7,0.1,1.1c0.1,0.9,0.2,1.8,0.4,2.7l0.2,1
			c0,0.1,0.1,0.3,0.1,0.5l0.1,0.4c0.1,0.4,0.2,0.8,0.3,1.2c0.1,0.3,0.1,0.5,0.2,0.8c0.3,1.2,0.7,2.5,1.2,3.8c0.8,2.3,1.8,4.4,3,6.5
			c0.5,0.8,1.5,2.2,2.7,3.8c0.6,0.9,1.4,1.9,2.2,2.8c0,0,0,0,0.1,0c0.1,0,0.1,0,0.2,0c0.9,0.1,2.1,0.2,3.3,0.8
			c0.7,0.3,1.2,0.7,1.6,1.2c0.5,0.6,0.7,1.4,0.7,2c0,0.4,0,0.8-0.3,1.3c-0.4,0.7-1.4,0.8-1.8,0.7c-0.7-0.2-1.2-0.5-1.6-0.8l-0.1-0.1
			c-1-0.7-1.8-1.5-2.5-2.1c-0.6-0.6-1.1-1.1-1.6-1.7c-1.2-0.1-2.3-0.1-3.2,0c-0.5,0-0.8,0.1-1.2,0.1c-0.2,0-0.4-0.1-0.4-0.3
			c0-0.2,0.1-0.4,0.3-0.5c0.9-0.2,1.9-0.4,2.9-0.5c0.2,0,0.4,0,0.6-0.1c-0.1-0.1-0.2-0.2-0.3-0.4l-2.9-2.7c-0.1-0.1-0.2-0.2-0.2-0.2
			c0,0-2-1.9-3.2-3.2c-0.6-0.6-1.1-1.4-1.7-2.1c-0.6-0.7-1.2-1.5-1.6-2.3c-0.5-0.8-1.5-2.5-1.5-2.5c0-0.1-0.1-0.2-0.2-0.3l-1.2-2.6
			c0-0.1-0.1-0.2-0.1-0.3c0,0-0.8-1.9-1.1-2.9c-0.3-1.1-1-3.1-1-3.1c0-0.1-0.1-0.2-0.1-0.3l-0.7-3.1c0-0.1,0-0.2-0.1-0.3l-0.3-1.4
			c0-0.1,0-0.2-0.1-0.3l-0.1-1.4c0-0.1,0-0.2,0-0.3l-0.4-6.6c0-0.1,0-0.2,0-0.3c0,0,0-4.4,0.4-6.6c0.3-2.2,0.4-4.3,0.9-6.2
			c0.4-1.9,0.9-3.8,1.2-5.5c0.3-1.7,0.9-3.2,1.3-4.6c0.4-1.3,0.8-2.5,1.1-3.5c0.4-1.1,0.7-2.3,0.7-2.3c0-0.1,0.1-0.1,0.2-0.1
			l7.8,2.8c0.1,0,0.1,0.1,0.1,0.2c0,0-0.4,0.9-1.2,2.5c-0.3,0.7-0.7,1.5-1.1,2.4c0.7-0.9,1.4-1.8,2.2-2.7l1.4-1.6
			c0.1-0.1,0.3-0.2,0.5-0.1l3.6,1.7l2.4,1.3l2.3,1.4l2.2,1.5l2.2,1.6l2.1,1.7c1.4,1.2,2.7,2.4,3.9,3.7l1.8,2l1.7,2.1
			c1.1,1.5,2.1,2.9,3.1,4.4c0.8,1.4,1.7,2.9,2.6,4.7c0.8,1.6,1.5,3.3,2.1,5c0.7,2,1.2,3.4,1.6,5.2c0.4,1.8,0.8,3.6,1,5.4
			c0.5,3.7,0.4,7.4,0,11.1c-0.1,0.6-0.2,1.2-0.3,1.9c0.7-0.5,1.3-0.9,1.9-1.3c2.1-1.3,4.1-2.3,6.4-3.2c0.4-0.2,0.7-0.3,1.1-0.4
			l0.5-0.2c0.4-0.1,0.7-0.2,1-0.3c0.2-0.1,0.4-0.1,0.7-0.2c1-0.3,2.1-0.6,3.4-0.9c1.2-0.3,2.3-0.5,3.5-0.6c1.1-0.2,2.3-0.2,3.5-0.2
			c0.5,0,1.1,0,1.6,0.1c4.8-10.5,9.2-18.2,9.4-18.4c5.2-8.6,7.7-9.5,8.5-9.5c3.6,0,18,5.4,19,10.7c-0.3,1.2-3.8,9.2-7,16.3
			c-3.5,7.9-7.2,16.1-8.7,20l-1.5,3.9l2.8-3.1c3.8-4.1,9.4-11.6,15.5-19.4c11-14.3,26-34,30.3-34c6.6,0,12.3,11,13.6,19
			c0.4,2.7,0.3,4.7-0.3,5.7c-7,10-18.8,32.8-17.3,42.3c0.3,1.8,1.2,1.9,2.2,1.9c6.6,0,11.4-1.5,15-3.8c-0.6-1.1-1.2-2.3-1.7-3.6
			c-1.4-3.6-2-7.6-2-12c0-5.5,1-10.9,3.1-16.1c2.1-5.2,5.1-9.9,9.2-14.1c3.9-4,8.7-7.2,14.7-9.7c5.9-2.5,12.4-3.7,19.6-3.7
			c8.4,0,14.8,1.3,19.2,4c4.4,2.7,6.6,6.7,6.6,12c0,5.1-1.9,9.5-5.7,13.2c-3.8,3.7-9,6.4-15.5,8.2c-5.2,1.6-9.6,2.7-13.2,3.3
			c-3.6,0.7-8.1,1.3-13.3,1.8c0.1,2.1-0.2,14.6,7.7,18.6c12.6,6.3,32.7-1.9,39.2-7.2c0-0.1,0-0.2,0-0.2c0.2-1.6,0.6-3.5,1.1-6
			l8.7-37.5H452c-0.2-3.1-1.3-5.5-2.6-7.3h8.6l5.1-21.3H486L481,32h19.1l-1.7,7.3h-19l-8.6,37.5C470.5,78,470.2,79.6,469.9,81.5z
			 M399.5,65.7c2.8-0.3,5.5-0.8,8.2-1.3c2.7-0.5,4.9-1.1,6.5-1.8c3.5-1.6,6.1-3.5,7.6-6c1.5-2.4,2.3-5.7,2.3-9.7
			c0-4-0.7-7.1-2.2-9.2c-1.5-2.1-3.5-3.2-6.1-3.2c-3.6,0-7,2.9-10.2,8.8C402.5,49.2,400.4,56.7,399.5,65.7z M247.1,72.6
			c0.5,0.6,1.1,1.2,1.8,1.7c0.3,0.2,0.5,0.4,0.7,0.5c0-0.7-0.4-1.3-1.1-1.7C248,72.9,247.6,72.8,247.1,72.6z M287.6,79.5
			c1.3-0.9,2.8-2,4.2-3.1c1.3-1,2.5-2.1,3.9-3.4c1.4-1.3,2.6-2.5,3.7-3.7c1.4-1.5,2.5-2.8,3.5-4c0.8-1,1.5-2,2.2-3.1
			c-0.3-0.2-0.6-0.5-0.9-0.7c-0.8-0.6-1.7-1-2.7-1.4c-0.8-0.4-1.8-0.6-3-0.9c-1-0.1-2-0.3-3.1-0.2c-2.1,0-4.1,0.4-6.2,1
			c-1,0.3-2,0.8-3,1.2l-0.4,0.2c-0.3,0.2-0.7,0.3-1,0.5l-0.5,0.3c-0.3,0.2-0.6,0.4-0.9,0.5c-1.7,1.1-3.5,2.4-5,3.8
			c-1.5,1.4-3,2.9-4.4,4.5c-1.4,1.6-2.7,3.3-3.8,4.9c-1.1,1.6-2.1,3.4-3,5.4l-1,2c0,0,0,0,0,0.1c-0.6,1.5-1.1,3.1-1.4,4.7
			c-0.5,2.3-0.5,4.6-0.1,6.8c0,0.3,0.1,0.5,0.1,0.7l0.1,0.2c0,0,0,0.1,0,0.2l0.1,0.5c0.1,0.4,0.2,0.6,0.3,0.8
			c0.1,0.2,0.1,0.4,0.2,0.6l0.1,0.1c0.4,1,1,1.9,1.6,2.7c0.6,0.8,1.3,1.5,2.3,2.1c0.5,0.3,1,0.6,1.8,0.9c1.3-1.9,2.2-3.9,2.8-5.9
			c0.4-1.3,0.6-2.8,0.6-4.3c0-1.4-0.2-2.9-0.6-4.2l-0.1-0.2c-0.3-1.1-0.8-2.1-1.5-3.1c-0.6-0.1-1.1-0.2-1.5-0.4
			c-0.6-0.3-1-0.6-1.4-1.1c-0.4-0.5-0.6-1.1-0.6-1.7c0-0.6,0-1.1,0.2-1.7c0.1-0.2,0.2-0.4,0.4-0.6c0.3-0.3,0.7-0.4,1.1-0.3
			c0.5,0.1,0.8,0.3,1,0.5c0,0,0.1,0.1,0.1,0.1c0.7,0.7,1.1,1.5,1.5,2.2l0.1,0.1c0.1,0.3,0.3,0.6,0.4,1c0,0.1,0.1,0.2,0.1,0.3
			c0.1,0,0.3,0,0.4,0c3.5,0,6.8-1.4,9-2.4c0.8-0.4,1.6-0.8,2.3-1.2l0.6-0.4C286.5,80.2,287.1,79.9,287.6,79.5z M270.7,82.8
			c0,0,0,0.1,0,0.1c0,0.6,0.5,1,0.8,1.2C271.3,83.6,271,83.2,270.7,82.8z"/>
	</g>
</g>
</svg>
